<?xml version="1.0" standalone="no"?>
<!DOCTYPE svg PUBLIC "-//W3C//DTD SVG 20010904//EN"
 "http://www.w3.org/TR/2001/REC-SVG-20010904/DTD/svg10.dtd">
<svg version="1.0" xmlns="http://www.w3.org/2000/svg"
 width="513.000000pt" height="513.000000pt" viewBox="0 0 513.000000 513.000000"
 preserveAspectRatio="xMidYMid meet">
<metadata>
Created by potrace 1.11, written by Peter Selinger 2001-2013
</metadata>
<g transform="translate(0.000000,513.000000) scale(0.100000,-0.100000)"
fill="#000000" stroke="none">
<path d="M2502 5113 c-54 -27 -96 -91 -223 -343 -288 -573 -463 -1258 -468
-1839 -1 -107 13 -106 -113 -10 -385 294 -956 573 -1418 692 -103 27 -147 26
-195 -3 -37 -23 -75 -87 -75 -126 0 -75 106 -404 205 -633 139 -325 289 -591
492 -870 10 -13 48 -62 86 -109 l67 -85 -147 -37 c-233 -59 -503 -157 -618
-224 -74 -44 -102 -125 -70 -202 19 -46 45 -68 125 -106 254 -120 626 -229
900 -263 30 -4 62 -9 70 -10 43 -8 231 -17 348 -17 72 0 132 -1 132 -3 0 -2
-18 -41 -39 -87 -133 -284 -154 -369 -104 -436 61 -82 131 -88 297 -22 189 74
440 205 599 312 l57 39 0 -333 c0 -415 -13 -383 160 -383 174 0 160 -33 160
381 l0 335 58 -39 c165 -112 449 -257 637 -327 102 -38 155 -42 205 -15 34 18
72 79 77 123 6 49 -36 171 -118 346 -27 57 -49 105 -49 107 0 1 67 2 149 2
216 1 348 14 585 57 15 3 58 13 95 21 36 9 73 17 81 19 170 38 564 190 622
239 40 36 57 76 54 132 -5 91 -51 128 -266 214 -146 59 -261 96 -433 139
l-147 38 22 29 c12 16 25 31 29 34 17 14 193 257 246 340 116 182 258 448 339
635 7 17 19 46 28 65 69 162 173 483 182 568 11 87 -57 170 -143 176 -43 3
-160 -27 -338 -86 -419 -139 -845 -361 -1195 -621 -63 -47 -115 -85 -116 -84
-1 1 -4 70 -8 152 -10 246 -29 413 -71 625 -3 14 -8 36 -10 50 -10 52 -14 69
-50 210 -46 178 -136 443 -210 620 -91 214 -246 519 -294 574 -42 49 -133 68
-189 39z"/>
</g>
</svg>
